<svg width="36" height="36" viewBox="0 0 36 36" fill="none" xmlns="http://www.w3.org/2000/svg">
<g clip-path="url(#clip0_70_172)">
<path d="M19.3562 17.9999L35.7181 1.63804C35.8978 1.45819 35.9988 1.2143 35.9987 0.960014C35.9987 0.705729 35.8976 0.461886 35.7177 0.282122C35.5379 0.102357 35.294 0.00138628 35.0397 0.0014462C34.7854 0.00150612 34.5416 0.102584 34.3618 0.282434L17.9999 16.6443L1.63802 0.282434C1.54959 0.190868 1.44381 0.117832 1.32684 0.0675873C1.20988 0.0173426 1.08407 -0.00911156 0.956777 -0.0102177C0.82948 -0.0113239 0.703244 0.0129462 0.585423 0.0611507C0.467602 0.109355 0.360551 0.18054 0.270536 0.270555C0.18052 0.360571 0.109336 0.467602 0.0611312 0.585423C0.0129267 0.703244 -0.0113239 0.8295 -0.0102177 0.956796C-0.00911153 1.08409 0.0173231 1.20988 0.0675678 1.32684C0.117813 1.44381 0.190848 1.54961 0.282414 1.63804L16.6443 17.9999L0.282414 34.3618C0.102565 34.5416 0.00150615 34.7854 0.00144623 35.0397C0.00138631 35.294 0.102337 35.5379 0.282102 35.7178C0.461867 35.8976 0.705709 35.9987 0.959995 35.9987C1.21428 35.9988 1.45817 35.8978 1.63802 35.7181L17.9999 19.3562L34.3618 35.7181C34.5417 35.8979 34.7856 35.999 35.0399 35.999C35.2943 35.999 35.5382 35.8979 35.7181 35.7181C35.8979 35.5382 35.9989 35.2943 35.9989 35.0399C35.9989 34.7856 35.8979 34.5417 35.7181 34.3618L19.3562 17.9999Z" fill="black"/>
</g>
<defs>
<clipPath id="clip0_70_172">
<rect width="36" height="36" fill="white"/>
</clipPath>
</defs>
</svg>
