<svg width="18" height="18" viewBox="0 0 18 18" fill="none" xmlns="http://www.w3.org/2000/svg">
<path d="M9 4C11.1 4 13.1116 5.28488 14.6865 6.73535C15.4561 7.44408 16.0821 8.15595 16.5156 8.69141C16.6054 8.80233 16.6855 8.90655 16.7578 9C16.6855 9.09345 16.6054 9.19767 16.5156 9.30859C16.0821 9.84405 15.4561 10.5559 14.6865 11.2646C13.1116 12.7151 11.1 14 9 14C6.89998 14 4.88841 12.7151 3.31348 11.2646C2.54395 10.5559 1.91791 9.84405 1.48438 9.30859C1.39442 9.19749 1.31362 9.09357 1.24121 9C1.31362 8.90643 1.39442 8.80251 1.48438 8.69141C1.91791 8.15595 2.54395 7.44408 3.31348 6.73535C4.88841 5.28488 6.89998 4 9 4Z" stroke="#3A86FF" stroke-width="2"/>
<path d="M9 6.25C10.5188 6.25 11.75 7.48122 11.75 9C11.75 10.5188 10.5188 11.75 9 11.75C7.48122 11.75 6.25 10.5188 6.25 9C6.25 7.48122 7.48122 6.25 9 6.25Z" stroke="#3A86FF" stroke-width="2"/>
<path d="M2 2L16 16" stroke="#3A86FF" stroke-width="2" stroke-linecap="round"/>
</svg>
