<?xml version="1.0" encoding="utf-8"?>
<!-- Svg Vector Icons : http://www.onlinewebfonts.com/icon -->
<!DOCTYPE svg PUBLIC "-//W3C//DTD SVG 1.1//EN" "http://www.w3.org/Graphics/SVG/1.1/DTD/svg11.dtd">
<svg version="1.1" xmlns="http://www.w3.org/2000/svg" xmlns:xlink="http://www.w3.org/1999/xlink" x="0px" y="0px" viewBox="0 0 256 256" enable-background="new 0 0 256 256" xml:space="preserve">
<metadata> Svg Vector Icons : http://www.onlinewebfonts.com/icon </metadata>
<g><g><g><path fill="#000000" d="M77.6,10.6c-17.5,3.2-31.8,10.5-44.1,22.9C21.9,45,14.5,58.7,11,74.9c-1.4,6.5-1.4,24.7,0,31.2c6.1,28.8,26.6,52,53.8,61c9.1,3,14.3,3.8,25.6,3.8c8.8,0,11.4-0.2,16-1.2c9.7-2.1,19.6-6.1,27-10.9l3.1-2l10.6,10.6l10.5,10.5v3.6c0,4,1.3,8.9,3.4,12.4c0.8,1.3,11.8,12.7,24.7,25.5c21.5,21.4,23.6,23.3,26.8,24.7c4.2,1.8,11.3,2.5,15.5,1.3c8.4-2.3,15-8.9,17.3-17.3c1.1-4.2,0.5-11.3-1.3-15.5c-1.4-3.2-3.3-5.3-24.7-26.8c-12.7-12.9-24.2-23.9-25.5-24.7c-3.4-2-8.3-3.4-12.4-3.4h-3.6l-10.5-10.5l-10.6-10.6l2-3.1c4.7-7.4,8.8-17.3,10.9-27c1.7-7.9,1.7-24,0-31.9c-7-32.4-30.7-56.3-63.1-63.4C101.2,9.9,83.2,9.6,77.6,10.6z M104.8,34.3c26.3,7.5,43.3,30.9,42.1,57.8c-1.4,29.8-24.9,53.3-54.7,54.7c-22.9,1-43.7-11.3-53.8-31.8c-4.8-9.8-6.6-19.2-5.8-30.7C34,64.5,47,46,65.4,37.5C77.4,32,92.3,30.7,104.8,34.3z"/></g></g></g>
</svg>