<svg width="23" height="23" viewBox="0 0 23 23" fill="none" xmlns="http://www.w3.org/2000/svg">
<path d="M6.34219 0.0558038C4.70156 0.355804 3.36094 1.04018 2.20781 2.20268C1.12031 3.2808 0.426562 4.56518 0.0984375 6.08393C-0.0328125 6.6933 -0.0328125 8.39955 0.0984375 9.00893C0.670312 11.7089 2.59219 13.8839 5.14219 14.7277C5.99531 15.0089 6.48281 15.0839 7.54219 15.0839C8.36719 15.0839 8.61094 15.0652 9.04219 14.9714C9.95156 14.7746 10.8797 14.3996 11.5734 13.9496L11.8641 13.7621L12.8578 14.7558L13.8422 15.7402V16.0777C13.8422 16.4527 13.9641 16.9121 14.1609 17.2402C14.2359 17.3621 15.2672 18.4308 16.4766 19.6308C18.4922 21.6371 18.6891 21.8152 18.9891 21.9464C19.3828 22.1152 20.0484 22.1808 20.4422 22.0683C21.2297 21.8527 21.8484 21.2339 22.0641 20.4464C22.1672 20.0527 22.1109 19.3871 21.9422 18.9933C21.8109 18.6933 21.6328 18.4964 19.6266 16.4808C18.4359 15.2714 17.3578 14.2402 17.2359 14.1652C16.9172 13.9777 16.4578 13.8464 16.0734 13.8464H15.7359L14.7516 12.8621L13.7578 11.8683L13.9453 11.5777C14.3859 10.8839 14.7703 9.9558 14.9672 9.04643C15.1266 8.3058 15.1266 6.79643 14.9672 6.0558C14.3109 3.0183 12.0891 0.777679 9.05156 0.112054C8.55469 -0.00982122 6.86719 -0.0379462 6.34219 0.0558038ZM8.89219 2.27768C11.3578 2.9808 12.9516 5.17455 12.8391 7.69643C12.7078 10.4902 10.5047 12.6933 7.71094 12.8246C5.56406 12.9183 3.61406 11.7652 2.66719 9.8433C2.21719 8.92455 2.04844 8.0433 2.12344 6.96518C2.25469 5.10893 3.47344 3.37455 5.19844 2.57768C6.32344 2.06205 7.72031 1.94018 8.89219 2.27768Z" fill="white"/>
</svg>
